<?xml version="1.0" encoding="utf-8"?>
<!-- Generator: Adobe Illustrator 23.0.3, SVG Export Plug-In . SVG Version: 6.00 Build 0)  -->
<svg version="1.1" id="Layer_1" xmlns="http://www.w3.org/2000/svg" xmlns:xlink="http://www.w3.org/1999/xlink" x="0px" y="0px"
	 viewBox="0 0 78.9 117" style="enable-background:new 0 0 78.9 117;" xml:space="preserve">
<g>
	<path  d="M78.8,55.3L62.9,2.1C62.5,0.9,61.3,0,60,0H18.9c-1.3,0-2.5,0.9-2.9,2.1L0.1,55.3C-0.1,56.2,0,57.2,0.6,58
		c0.6,0.8,1.5,1.2,2.4,1.2h72.9c0.9,0,1.8-0.4,2.4-1.2C78.9,57.2,79,56.2,78.8,55.3z M7,53.2L21.1,6h36.6l14.1,47.2H7z"/>
	<path class="st0" d="M52.3,102.4h-9.8V68.5c0-1.7-1.3-3-3-3s-3,1.3-3,3v33.9H25.9c-6.4,0-11.6,5.2-11.6,11.6c0,1.7,1.3,3,3,3
		s3-1.3,3-3c0-3.1,2.5-5.6,5.6-5.6h26.4c3.1,0,5.6,2.5,5.6,5.6c0,1.7,1.3,3,3,3s3-1.3,3-3C63.9,107.6,58.7,102.4,52.3,102.4z"/>
</g>
</svg>
