<?xml version="1.0" encoding="utf-8"?>
<!-- Generator: Adobe Illustrator 23.0.3, SVG Export Plug-In . SVG Version: 6.00 Build 0)  -->
<svg version="1.1" id="Layer_1" xmlns="http://www.w3.org/2000/svg" xmlns:xlink="http://www.w3.org/1999/xlink" x="0px" y="0px"
	 viewBox="0 0 133 111" style="enable-background:new 0 0 133 111;" xml:space="preserve">
<path d="M130,0H18H3C1.3,0,0,1.3,0,3s1.3,3,3,3h12v9c0,1.7,1.3,3,3,3h15v90c0,1.7,1.3,3,3,3h9c1.6,0,2.9-1.3,3-2.9l4-82
	c0.1-1.7-1.2-3.1-2.9-3.1c-1.7-0.1-3.1,1.2-3.1,2.9L42.1,105H39V18h91c1.7,0,3-1.3,3-3V3C133,1.3,131.7,0,130,0z M127,12H21V6h106
	V12z"/>
</svg>
