<?xml version="1.0" encoding="utf-8"?>
<!-- Generator: Adobe Illustrator 23.0.3, SVG Export Plug-In . SVG Version: 6.00 Build 0)  -->
<svg version="1.1" id="Layer_1" xmlns="http://www.w3.org/2000/svg" xmlns:xlink="http://www.w3.org/1999/xlink" x="0px" y="0px"
	 viewBox="0 0 149.9 192" style="enable-background:new 0 0 149.9 192;" xml:space="preserve">
<g>
	<path  d="M60,94c1.7,0,3-1.3,3-3v-2c0-1.7-1.3-3-3-3s-3,1.3-3,3v2C57,92.7,58.3,94,60,94z"/>
	<path  d="M91,86c-1.7,0-3,1.3-3,3v2c0,1.7,1.3,3,3,3s3-1.3,3-3v-2C94,87.3,92.7,86,91,86z"/>
	<path  d="M130.3,0H19.6C8.8,0,0,8.8,0,19.6v139.8c0,9.6,6.9,17.6,16,19.3V189c0,1.7,1.3,3,3,3h9c1.1,0,2-0.6,2.6-1.5
		l3-5c0.9-1.4,0.4-3.3-1-4.1c-1.4-0.9-3.3-0.4-4.1,1l-2.1,3.5H22v-7h108.4c0.5,0,1.1,0,1.6-0.1v7.1h-4.3l-2.1-3.5
		c-0.9-1.4-2.7-1.9-4.1-1c-1.4,0.9-1.9,2.7-1,4.1l3,5c0.5,0.9,1.5,1.5,2.6,1.5h9c1.7,0,3-1.3,3-3v-11.5c2.3-1,4.5-2.4,6.3-4.2
		c3.7-3.7,5.7-8.7,5.6-13.9V19.6C149.9,8.8,141.1,0,130.3,0z M6,159.4V19.6C6,12.1,12.1,6,19.6,6H72v167H19.6
		C12.1,173,6,166.9,6,159.4z M143.9,159.3c0,3.7-1.3,7.1-3.9,9.7c-2.5,2.6-6,4-9.6,4H78V6h52.3c7.5,0,13.6,6.1,13.6,13.6V159.3z"/>
</g>
</svg>
