<?xml version="1.0" encoding="utf-8"?>
<!-- Generator: Adobe Illustrator 23.0.3, SVG Export Plug-In . SVG Version: 6.00 Build 0)  -->
<svg version="1.1" id="Layer_1" xmlns="http://www.w3.org/2000/svg" xmlns:xlink="http://www.w3.org/1999/xlink" x="0px" y="0px"
	 viewBox="0 0 189 123" style="enable-background:new 0 0 189 123;" xml:space="preserve">
<g>
	<path d="M148,29c1.7,0,3-1.3,3-3s-1.3-3-3-3h-7c-1.7,0-3,1.3-3,3s1.3,3,3,3H148z"/>
	<path d="M148,51h-7c-1.7,0-3,1.3-3,3s1.3,3,3,3h7c1.7,0,3-1.3,3-3S149.7,51,148,51z"/>
	<path d="M186,0H3C1.3,0,0,1.3,0,3v12c0,1.7,1.3,3,3,3h9v102c0,1.7,1.3,3,3,3h9c1.6,0,2.9-1.3,3-2.9l4-94
		c0.1-1.7-1.2-3.1-2.9-3.1c-1.7-0.1-3.1,1.2-3.1,2.9L21.1,117H18V18h154v23h-55V26c0-1.7-1.3-3-3-3s-3,1.3-3,3v46c0,1.7,1.3,3,3,3
		h58v42h-3.2L166,80.8c-0.1-1.7-1.6-2.9-3.2-2.8c-1.7,0.1-2.9,1.6-2.8,3.2l3,39c0.1,1.6,1.4,2.8,3,2.8h9c1.7,0,3-1.3,3-3V18h8
		c1.7,0,3-1.3,3-3V3C189,1.3,187.7,0,186,0z M117,69V47h55v22H117z M183,12H6V6h177V12z"/>
</g>
</svg>
