<?xml version="1.0" encoding="utf-8"?>
<!-- Generator: Adobe Illustrator 23.0.3, SVG Export Plug-In . SVG Version: 6.00 Build 0)  -->
<svg version="1.1" id="Layer_1" xmlns="http://www.w3.org/2000/svg" xmlns:xlink="http://www.w3.org/1999/xlink" x="0px" y="0px"
	 viewBox="0 0 84.4 84.3" style="enable-background:new 0 0 84.4 84.3;" xml:space="preserve">
<path d="M42.1,84.3c-9,0-18-2.8-25.7-8.7C-2,61.5-5.4,34.9,8.7,16.4C22.9-2,49.4-5.4,67.9,8.7c1.3,1,1.6,2.9,0.6,4.2
	c-1,1.3-2.9,1.6-4.2,0.6C48.4,1.3,25.6,4.3,13.5,20.1C1.3,35.9,4.3,58.7,20.1,70.9C35.9,83,58.7,80,70.9,64.2
	c9.1-11.8,10-28.3,2.1-41c-0.9-1.4-0.4-3.3,1-4.1c1.4-0.9,3.3-0.4,4.1,1c9.1,14.9,8.1,34.1-2.5,47.8C67.3,78.7,54.8,84.3,42.1,84.3z
	"/>
<g>
	<circle class="st0" cx="23.7" cy="42.2" r="5.2"/>
	<circle class="st0" cx="60.8" cy="42.2" r="5.2"/>
</g>
<path  d="M40.1,59.7c-0.4,0-0.8-0.1-1.1-0.2c-1.5-0.6-2.3-2.4-1.6-3.9L42,44.2l-3.9,0.7c-1.1,0.2-2.2-0.2-2.9-1.1
	c-0.7-0.9-0.8-2.1-0.3-3.1l8.4-17.1c0.7-1.5,2.5-2.1,4-1.4c1.5,0.7,2.1,2.5,1.4,4L42.9,38l3.4-0.6c1.1-0.2,2.2,0.2,2.9,1.1
	c0.7,0.9,0.9,2,0.4,3l-6.8,16.4C42.4,59,41.2,59.7,40.1,59.7z"/>
</svg>
