<?xml version="1.0" encoding="utf-8"?>
<!-- Generator: Adobe Illustrator 23.0.3, SVG Export Plug-In . SVG Version: 6.00 Build 0)  -->
<svg version="1.1" id="Layer_1" xmlns="http://www.w3.org/2000/svg" xmlns:xlink="http://www.w3.org/1999/xlink" x="0px" y="0px"
	 viewBox="0 0 328.3 133" style="enable-background:new 0 0 328.3 133;" xml:space="preserve">
<g>
	<path d="M257.4,28c1.7,0,3-1.3,3-3s-1.3-3-3-3h-11h-164h-12c-1.7,0-3,1.3-3,3s1.3,3,3,3h9v9c0,1.7,1.3,3,3,3h15v90
		c0,1.7,1.3,3,3,3h9c1.6,0,2.9-1.3,3-2.9l4-82c0.1-1.7-1.2-3.1-2.8-3.1c-1.7-0.1-3.1,1.2-3.1,2.9l-3.9,79.1h-3.1V40h121v87h-3.1
		l-3.9-79.1c-0.1-1.7-1.5-2.9-3.1-2.9c-1.7,0.1-2.9,1.5-2.8,3.1l4,82c0.1,1.6,1.4,2.9,3,2.9h9c1.7,0,3-1.3,3-3V40h16
		c1.7,0,3-1.3,3-3v-9H257.4z M243.4,34h-158v-6h158V34z"/>
	<path d="M327.3,0.7c-0.8-0.7-2-0.9-3-0.5c-0.5,0.2-12.5,4.7-18,23.5c-3.7,12.3,0,21.1,0.1,21.4
		c0.6,1.5,2.4,2.2,3.9,1.6c1.5-0.6,2.2-2.4,1.6-3.9c0-0.1-2.9-7.1,0.1-17.4c2.3-8,5.9-12.9,8.9-15.8c-2.2,12.1-6.2,37.2-6.2,58.1
		v7.8h-47.9c-0.2-0.1-0.5-0.1-0.7-0.1s-0.5,0-0.7,0.1h-7.1v-3.6c0-1.2,1.1-2.3,2.3-2.3h46.6c1.7,0,3-1.3,3-3s-1.3-3-3-3h-46.6
		c-4.6,0-8.3,3.7-8.3,8.3v6.6c0,1.7,1.3,3,3,3h7.8V130c0,1.7,1.3,3,3,3h8.6c1.6,0,2.9-1.2,3-2.8l2.1-39.8c0.1-1.7-1.2-3.1-2.8-3.2
		c-1.6-0.1-3.1,1.2-3.2,2.8l-1.9,37h-2.8V81.4h45.6V127H312l-1.9-37c-0.1-1.7-1.5-2.9-3.1-2.8c-1.7,0.1-2.9,1.5-2.8,3.1l2,39.8
		c0.1,1.6,1.4,2.8,3,2.8h8.7c1.7,0,3-1.3,3-3V78.4v-0.1V67.6c0-27.4,7.4-63.6,7.4-64C328.5,2.5,328.1,1.4,327.3,0.7z"/>
	<path d="M67.6,63.5H21c-1.7,0-3,1.3-3,3s1.3,3,3,3h46.6c1.2,0,2.3,1.1,2.3,2.3v3.6h-7c-0.2-0.1-0.5-0.1-0.7-0.1
		s-0.5,0-0.7,0.1h-48v-7.8c0-20.8-4-46-6.2-58.1c3,2.9,6.6,7.8,8.9,15.8c3,10.1,0.1,17.3,0.1,17.4c-0.6,1.5,0.1,3.3,1.6,3.9
		c1.5,0.6,3.3-0.1,3.9-1.6c0.2-0.4,3.8-9.1,0.1-21.4C16.5,4.9,4.5,0.4,4,0.2C3-0.2,1.9,0,1,0.7c-0.8,0.7-1.2,1.8-1,2.9
		c0.1,0.4,7.4,36.6,7.4,64v10.7v0.1V130c0,1.7,1.3,3,3,3h8.7c1.6,0,2.9-1.2,3-2.8l2.1-39.8c0.1-1.7-1.2-3.1-2.8-3.2
		c-1.7-0.1-3.1,1.2-3.2,2.8l-2,37h-2.9V81.4h45.7V127h-2.9l-2-37c-0.1-1.7-1.5-2.9-3.2-2.8c-1.7,0.1-2.9,1.5-2.8,3.2l2.1,39.8
		c0.1,1.6,1.4,2.8,3,2.8h8.7c1.7,0,3-1.3,3-3V81.4h7.7c1.7,0,3-1.3,3-3v-6.6C75.9,67.2,72.2,63.5,67.6,63.5z"/>
</g>
</svg>
