<?xml version="1.0" encoding="utf-8"?>
<!-- Generator: Adobe Illustrator 23.0.3, SVG Export Plug-In . SVG Version: 6.00 Build 0)  -->
<svg version="1.1" id="Layer_1" xmlns="http://www.w3.org/2000/svg" xmlns:xlink="http://www.w3.org/1999/xlink" x="0px" y="0px"
	 viewBox="0 0 125 102" style="enable-background:new 0 0 125 102;" xml:space="preserve">
<g>
	<path d="M122,0H3C1.3,0,0,1.3,0,3v13c0,1.7,1.3,3,3,3h19v54c0,1.7,1.3,3,3,3h75c1.7,0,3-1.3,3-3V27c0-1.7-1.3-3-3-3
		s-3,1.3-3,3v3.7H28V19h82v64H13V27c0-1.7-1.3-3-3-3s-3,1.3-3,3v59v13c0,1.7,1.3,3,3,3h9c1.1,0,2-0.6,2.6-1.5l3-5
		c0.9-1.4,0.4-3.3-1-4.1c-1.4-0.9-3.3-0.4-4.1,1L17.3,96H13v-7h97v7h-4.3l-2.1-3.5c-0.9-1.4-2.7-1.9-4.1-1c-1.4,0.9-1.9,2.7-1,4.1
		l3,5c0.5,0.9,1.5,1.5,2.6,1.5h9c1.7,0,3-1.3,3-3V86V19h6c1.7,0,3-1.3,3-3V3C125,1.3,123.7,0,122,0z M97,36.7V70H28V36.7H97z
		 M119,13H6V6h113V13z"/>
	<path d="M37,60c1.7,0,3-1.3,3-3v-7c0-1.7-1.3-3-3-3s-3,1.3-3,3v7C34,58.7,35.3,60,37,60z"/>
</g>
</svg>
