<?xml version="1.0" encoding="utf-8"?>
<!-- Generator: Adobe Illustrator 23.0.3, SVG Export Plug-In . SVG Version: 6.00 Build 0)  -->
<svg version="1.1" id="Layer_1" xmlns="http://www.w3.org/2000/svg" xmlns:xlink="http://www.w3.org/1999/xlink" x="0px" y="0px"
	 viewBox="0 0 512 512" style="enable-background:new 0 0 512 512;" xml:space="preserve">
<path d="M456.8,0H338.4c-26,0-60.8,14.4-79.2,32.8L16.1,275.9C5.7,286.3,0,300.1,0,314.9s5.7,28.6,16.1,39l142,142
	c10.4,10.4,24.2,16.1,39,16.1c14.8,0,28.6-5.7,39-16.1l243.1-243.1c18.4-18.4,32.8-53.2,32.8-79.2V55.2C512,24.7,487.2,0,456.8,0z
	 M428.1,106c-2.8,2.8-6.7,4.4-10.6,4.4c-4,0-7.8-1.6-10.6-4.4c-2.8-2.8-4.4-6.7-4.4-10.6c0-3.9,1.6-7.8,4.4-10.6
	c2.8-2.8,6.6-4.4,10.6-4.4c3.9,0,7.8,1.6,10.6,4.4c2.8,2.8,4.4,6.7,4.4,10.6C432.5,99.3,430.9,103.2,428.1,106z"/>
</svg>
